<svg xmlns="http://www.w3.org/2000/svg" version="1.1" xmlns:xlink="http://www.w3.org/1999/xlink" width="512" height="512" x="0" y="0" viewBox="0 0 510 510" style="enable-background:new 0 0 512 512" xml:space="preserve" class=""><g><radialGradient id="h" cx="200.413" cy="117.135" r="171.674" gradientUnits="userSpaceOnUse"><stop offset="0" stop-color="#ff7044"></stop><stop offset=".239" stop-color="#ff6c41"></stop><stop offset=".473" stop-color="#fe603a"></stop><stop offset=".705" stop-color="#fc4d2c"></stop><stop offset=".935" stop-color="#fa311a"></stop><stop offset="1" stop-color="#f92814"></stop></radialGradient><linearGradient id="i" x1="306.417" x2="293.155" y1="96.605" y2="50.515" gradientUnits="userSpaceOnUse"><stop offset="0" stop-color="#ff1d25" stop-opacity="0"></stop><stop offset="1" stop-color="#ff1d25"></stop></linearGradient><linearGradient id="a"><stop offset="0" stop-color="#f92814" stop-opacity="0"></stop><stop offset="1" stop-color="#c1272d"></stop></linearGradient><linearGradient xlink:href="#a" id="j" x1="319.046" x2="273.434" y1="111.023" y2="31.079" gradientUnits="userSpaceOnUse"></linearGradient><linearGradient id="b"><stop offset="0" stop-color="#92f37f"></stop><stop offset="1" stop-color="#4ab272"></stop></linearGradient><linearGradient xlink:href="#b" id="k" x1="3.729" x2="46.859" y1="-221.046" y2="-169.953" gradientTransform="rotate(-12.58 1325.423 -1358.091)" gradientUnits="userSpaceOnUse"></linearGradient><linearGradient id="c"><stop offset="0" stop-color="#4ab272" stop-opacity="0"></stop><stop offset="1" stop-color="#009245"></stop></linearGradient><linearGradient xlink:href="#c" id="l" x1="30.059" x2="-9.42" y1="-195.685" y2="-230.851" gradientTransform="rotate(-12.58 1325.423 -1358.091)" gradientUnits="userSpaceOnUse"></linearGradient><linearGradient xlink:href="#c" id="m" x1="-5.135" x2="5.15" y1="-219.086" y2="-205.814" gradientTransform="rotate(-12.58 1325.423 -1358.091)" gradientUnits="userSpaceOnUse"></linearGradient><linearGradient id="d"><stop offset="0" stop-color="#7e8595"></stop><stop offset="1" stop-color="#555a66"></stop></linearGradient><linearGradient xlink:href="#d" id="n" x1="220.223" x2="260.665" y1="54.26" y2="54.26" gradientUnits="userSpaceOnUse"></linearGradient><linearGradient xlink:href="#a" id="o" x1="299.502" x2="253.616" y1="139.995" y2="40.798" gradientUnits="userSpaceOnUse"></linearGradient><linearGradient xlink:href="#d" id="p" x1="254.534" x2="254.534" y1="78.767" y2="104.207" gradientUnits="userSpaceOnUse"></linearGradient><linearGradient id="q" x1="223.176" x2="98.944" y1="148.976" y2="65.239" gradientUnits="userSpaceOnUse"><stop offset="0" stop-color="#ff7044" stop-opacity="0"></stop><stop offset=".25" stop-color="#ff813a" stop-opacity=".25"></stop><stop offset=".719" stop-color="#ff9a2b" stop-opacity=".719"></stop><stop offset="1" stop-color="#ffa425"></stop></linearGradient><linearGradient id="r" x1="189.95" x2="404.698" y1="396.123" y2="616.796" gradientUnits="userSpaceOnUse"><stop offset="0" stop-color="#18cffc"></stop><stop offset="1" stop-color="#4a98f7"></stop></linearGradient><linearGradient id="s" x1="253.681" x2="262.681" y1="444.084" y2="547.584" gradientUnits="userSpaceOnUse"><stop offset="0" stop-color="#0469bc" stop-opacity="0"></stop><stop offset="1" stop-color="#0469bc"></stop></linearGradient><linearGradient id="e"><stop offset="0" stop-color="#f9f7fc"></stop><stop offset="1" stop-color="#f0ddfc"></stop></linearGradient><linearGradient xlink:href="#e" id="t" x1="253.458" x2="253.458" y1="450" y2="499.554" gradientUnits="userSpaceOnUse"></linearGradient><linearGradient id="f"><stop offset="0" stop-color="#f0ddfc" stop-opacity="0"></stop><stop offset=".289" stop-color="#c8b7e0" stop-opacity=".289"></stop><stop offset=".592" stop-color="#a595c8" stop-opacity=".592"></stop><stop offset=".84" stop-color="#8f81b8" stop-opacity=".84"></stop><stop offset="1" stop-color="#8779b3"></stop></linearGradient><linearGradient xlink:href="#f" id="u" x1="254.599" x2="257.266" y1="501.083" y2="432.415" gradientUnits="userSpaceOnUse"></linearGradient><linearGradient xlink:href="#f" id="v" x1="253.458" x2="253.458" y1="485.333" y2="450.667" gradientUnits="userSpaceOnUse"></linearGradient><linearGradient xlink:href="#f" id="w" x1="253.78" x2="254.447" y1="467.943" y2="445.276" gradientUnits="userSpaceOnUse"></linearGradient><linearGradient xlink:href="#f" id="x" x1="174.307" x2="162.057" y1="511.016" y2="462.766" gradientUnits="userSpaceOnUse"></linearGradient><linearGradient id="y" x1="129.604" x2="179.5" y1="461.185" y2="526.091" gradientUnits="userSpaceOnUse"><stop offset="0" stop-color="#ff7044"></stop><stop offset="1" stop-color="#f92814"></stop></linearGradient><linearGradient xlink:href="#b" id="z" x1="227.363" x2="286.37" y1="331.273" y2="459.121" gradientTransform="matrix(-1 0 0 1 510.213 0)" gradientUnits="userSpaceOnUse"></linearGradient><linearGradient xlink:href="#c" id="A" x1="418.968" x2="246.256" y1="392.325" y2="392.325" gradientTransform="matrix(-1 0 0 1 510.213 0)" gradientUnits="userSpaceOnUse"></linearGradient><linearGradient xlink:href="#e" id="B" x1="261.176" x2="261.176" y1="371.55" y2="421.104" gradientTransform="matrix(-1 0 0 1 510.213 0)" gradientUnits="userSpaceOnUse"></linearGradient><linearGradient xlink:href="#f" id="C" x1="262.31" x2="265.03" y1="422.813" y2="352.77" gradientTransform="matrix(-1 0 0 1 510.213 0)" gradientUnits="userSpaceOnUse"></linearGradient><linearGradient xlink:href="#f" id="D" x1="261.176" x2="261.176" y1="406.883" y2="372.217" gradientTransform="matrix(-1 0 0 1 510.213 0)" gradientUnits="userSpaceOnUse"></linearGradient><linearGradient xlink:href="#f" id="E" x1="261.5" x2="262.173" y1="389.406" y2="366.552" gradientTransform="matrix(-1 0 0 1 510.213 0)" gradientUnits="userSpaceOnUse"></linearGradient><linearGradient xlink:href="#f" id="F" x1="417.44" x2="171.541" y1="392.325" y2="392.325" gradientTransform="matrix(-1 0 0 1 510.213 0)" gradientUnits="userSpaceOnUse"></linearGradient><linearGradient id="G" x1="227.15" x2="286.157" y1="252.823" y2="380.671" gradientUnits="userSpaceOnUse"><stop offset="0" stop-color="#ffda45"></stop><stop offset="1" stop-color="#ffa425"></stop></linearGradient><linearGradient id="g"><stop offset="0" stop-color="#ffda45" stop-opacity="0"></stop><stop offset="1" stop-color="#b53759"></stop></linearGradient><linearGradient xlink:href="#g" id="H" x1="346.895" x2="279.895" y1="345.928" y2="146.428" gradientUnits="userSpaceOnUse"></linearGradient><linearGradient xlink:href="#g" id="I" x1="418.755" x2="246.043" y1="313.875" y2="313.875" gradientUnits="userSpaceOnUse"></linearGradient><linearGradient xlink:href="#e" id="J" x1="260.963" x2="260.963" y1="293.1" y2="342.654" gradientUnits="userSpaceOnUse"></linearGradient><linearGradient xlink:href="#f" id="K" x1="262.097" x2="264.817" y1="344.363" y2="274.32" gradientUnits="userSpaceOnUse"></linearGradient><linearGradient xlink:href="#f" id="L" x1="260.963" x2="260.963" y1="328.434" y2="293.767" gradientUnits="userSpaceOnUse"></linearGradient><linearGradient xlink:href="#f" id="M" x1="261.288" x2="261.96" y1="310.957" y2="288.102" gradientUnits="userSpaceOnUse"></linearGradient><linearGradient xlink:href="#f" id="N" x1="365.708" x2="221.208" y1="343.736" y2="107.736" gradientUnits="userSpaceOnUse"></linearGradient><linearGradient xlink:href="#f" id="O" x1="417.227" x2="171.328" y1="313.875" y2="313.875" gradientUnits="userSpaceOnUse"></linearGradient><path fill="url(#h)" d="M294.396 62.915c-15.086 3.248-29.232 16.591-39.503 16.591s-24.417-13.344-39.503-16.591c-32.002-4.187-77.426 18.171-77.426 86.906S187.739 274.65 209.07 274.65c23.702 0 26.862-11.061 45.823-11.061s22.122 11.061 45.823 11.061c21.332 0 71.105-56.094 71.105-124.829s-45.423-91.094-77.425-86.906z" opacity="1" data-original="url(#h)"></path><path fill="url(#i)" d="M310.697 63.05c-5.618-.791-11.135-.812-16.301-.136-15.086 3.248-29.232 16.591-39.503 16.591-.261 0-.526-.014-.791-.031v16.727l13.995 2.609 96.321 17.96z" opacity="1" data-original="url(#i)"></path><path fill="url(#j)" d="M294.396 62.915c-15.086 3.248-29.232 16.591-39.503 16.591-.526 0-1.065-.043-1.611-.11 2.268 5.421 4.606 9.252 5.44 10.551-.02.085-.043.169-.063.255l.383.232.383.232L364.55 195.743c4.505-14.226 7.272-29.723 7.272-45.922 0-68.735-45.424-91.094-77.426-86.906z" opacity="1" data-original="url(#j)"></path><path fill="url(#k)" d="M259.042 90.434S210.792 20.015 317.303.143c4.445-.829 8.738 2.026 9.748 6.433 4.857 21.188 10.73 78.984-68.009 83.858z" opacity="1" data-original="url(#k)"></path><path fill="url(#l)" d="M327.051 6.576a8.46 8.46 0 0 0-4.176-5.532c-35.288 38.479-63.833 89.39-63.833 89.39 78.739-4.874 72.866-62.67 68.009-83.858z" opacity="1" data-original="url(#l)"></path><path fill="url(#m)" d="M309.468 32.675c-.824.293-1.67.527-2.503.769-.832.244-1.66.488-2.499.685-.833.216-1.703.311-2.557.42a8.091 8.091 0 0 0-2.434.701c-.766.371-1.52.776-2.273 1.281l1.877-3.012 3.118-4.869c1.033-1.632 2.155-3.184 3.213-4.801 2.168-3.188 4.442-6.271 6.937-9.21l-.609-.657-2.228 1.919-1.121.968c-.364.331-.701.681-1.054 1.022-1.369 1.391-2.818 2.743-4.112 4.198-2.685 2.852-5.212 5.825-7.762 8.79l-1.429 1.751a8.013 8.013 0 0 0-.188-1.872c-.193-.839-.405-1.688-.49-2.544-.105-.856-.162-1.716-.222-2.581-.062-.865-.135-1.74-.145-2.614-.102-1.761-.038-3.525-.023-5.342l-.483-.12a34.292 34.292 0 0 0-1.962 5.146c-.267.886-.472 1.786-.688 2.692-.168.909-.338 1.825-.458 2.748-.128.922-.312 1.851-.453 2.79a7.407 7.407 0 0 0 .306 3.337c.598 1.951.167 4.074-1.09 5.682l-.023.03c-2.186 2.8-4.306 5.64-6.443 8.473a18.55 18.55 0 0 0-.24-2.531 8.056 8.056 0 0 0-.811-2.4c-.396-.764-.815-1.533-1.112-2.34-.316-.802-.587-1.621-.861-2.444-.276-.823-.566-1.651-.795-2.495-.539-1.68-.919-3.403-1.36-5.166l-.498.005a34.186 34.186 0 0 0-.611 5.473c-.037.925-.01 1.847.008 2.779.065.922.13 1.852.244 2.775.107.925.162 1.87.26 2.815.118.939.39 1.841.847 2.671.206.365.428.725.67 1.076 1.181 1.708 1.048 4.006-.224 5.647-1.092 1.41-2.188 2.818-3.269 4.235a74.987 74.987 0 0 0-3.854 5.553 19.43 19.43 0 0 0-.228-2.199 8.056 8.056 0 0 0-.811-2.4c-.396-.764-.815-1.533-1.112-2.341-.316-.802-.587-1.621-.861-2.444-.276-.823-.566-1.651-.795-2.495-.539-1.68-.919-3.403-1.36-5.166l-.498.005a34.173 34.173 0 0 0-.611 5.473c-.037.925-.01 1.847.008 2.779.065.922.13 1.852.244 2.775.107.925.162 1.87.26 2.815.118.939.39 1.841.847 2.671.464.82 1.006 1.617 1.688 2.332.782.819.983 2.026.463 3.032-1.346 2.604-3.74 7.332-4.84 9.933-1.506 3.634-2.883 7.345-3.803 11.324l.766.465c3.107-2.633 5.821-5.496 8.406-8.434a138.705 138.705 0 0 0 7.291-9.091l.122-.165c.74-1.004 2.054-1.321 3.208-.849.851.348 1.724.56 2.593.701a7.39 7.39 0 0 0 2.799-.13c.92-.235 1.826-.51 2.731-.73a51.393 51.393 0 0 0 2.688-.731c.88-.305 1.755-.599 2.61-.954a34.296 34.296 0 0 0 4.923-2.467l-.168-.469c-1.806.196-3.555.437-5.317.512-.871.078-1.748.092-2.616.118-.867.028-1.729.057-2.591.038-.86.001-1.727-.125-2.581-.233a8.052 8.052 0 0 0-2.532.07c-.909.182-1.817.418-2.753.764a92.352 92.352 0 0 0 3.112-5.222 432.475 432.475 0 0 1 2.771-5.015c.997-1.783 3.026-2.779 5.026-2.365.978.202 1.979.26 2.882.407a7.39 7.39 0 0 0 2.799-.13c.92-.235 1.826-.51 2.731-.73.906-.212 1.801-.473 2.688-.731.88-.305 1.755-.599 2.61-.954a34.198 34.198 0 0 0 4.923-2.468l-.168-.468c-1.806.196-3.555.437-5.317.512-.871.078-1.748.092-2.616.118-.867.028-1.729.057-2.591.038-.86.001-1.727-.126-2.581-.233a8.052 8.052 0 0 0-2.532.07c-1.602.321-3.195.793-4.967 1.809 1.992-3.296 3.958-6.616 5.999-9.879l.076-.129c1.197-2.012 3.393-3.288 5.731-3.148.661.04 1.314.016 1.955-.043a7.41 7.41 0 0 0 2.678-.826c.832-.457 1.64-.951 2.461-1.39a51.784 51.784 0 0 0 2.42-1.381c.776-.516 1.549-1.019 2.288-1.577a34.345 34.345 0 0 0 4.149-3.621l-.28-.412c-1.693.641-3.326 1.312-5.013 1.826z" opacity="1" data-original="url(#m)"></path><path fill="url(#n)" d="M260.665 96.917a75.625 75.625 0 0 1-6.35.268c-1.526 0-3.023-.043-4.499-.137-.181-10.48-1.331-23.339-4.788-36.199-2.054-7.659-4.933-15.326-8.918-22.493-6.741-12.114-13.561-17.134-13.633-17.184-2.416-1.75-2.98-5.128-1.251-7.558 1.736-2.423 5.085-3.009 7.522-1.295.991.694 18.805 13.655 27.382 47.973 2.567 10.234 4.303 22.355 4.535 36.625z" opacity="1" data-original="url(#n)" class=""></path><path fill="url(#o)" d="M296.816 84.012a36.556 36.556 0 0 1-4.809 3.016c-1.675.829-3.356 1.581-5.087 2.213-3.444 1.288-7.002 2.211-10.582 2.941-7.171 1.446-14.485 2.054-21.803 2.061-7.304-.026-14.641-.621-21.804-2.065-3.589-.712-7.126-1.676-10.575-2.951-1.746-.608-3.405-1.391-5.092-2.203-.809-.448-1.659-.871-2.433-1.401-.838-.464-1.565-1.061-2.379-1.611 1.086 1.874 2.513 3.553 4.125 5.058l69.585 69.585c1.633 1.774 3.545 3.33 5.555 4.67 3.311 2.212 6.938 3.928 10.676 5.246 7.505 2.625 15.417 3.785 23.319 3.799 7.885-.012 15.821-1.187 23.314-3.814 3.732-1.339 7.37-3.01 10.678-5.232 3.283-2.213 6.335-4.955 8.289-8.336z" opacity="1" data-original="url(#o)"></path><path fill="url(#p)" d="M296.816 84.012c-1.954 3.381-5.006 6.123-8.289 8.336-3.308 2.222-6.946 3.893-10.678 5.232-7.492 2.627-15.429 3.802-23.314 3.814-7.902-.015-15.813-1.174-23.319-3.799-3.739-1.317-7.365-3.034-10.676-5.246-3.291-2.196-6.333-4.961-8.288-8.337.815.55 1.541 1.146 2.379 1.611.775.529 1.624.953 2.433 1.401 1.687.812 3.345 1.596 5.092 2.203 3.449 1.275 6.986 2.239 10.575 2.951 7.163 1.444 14.501 2.039 21.805 2.065 7.318-.006 14.631-.615 21.803-2.061 3.581-.73 7.138-1.652 10.582-2.941 1.731-.632 3.411-1.385 5.087-2.213a36.612 36.612 0 0 0 4.808-3.016z" opacity="1" data-original="url(#p)"></path><ellipse cx="212.296" cy="141.642" fill="url(#q)" rx="63.179" ry="71.512" opacity="1" data-original="url(#q)"></ellipse><path fill="url(#r)" d="M453.773 444.111v53.327c0 6.937-5.624 12.561-12.561 12.561H95.244c-10.83 0-20.64-4.39-27.74-11.49s-11.49-16.91-11.49-27.74c0-21.66 17.56-39.22 39.23-39.22h345.969c6.937.001 12.56 5.625 12.56 12.562z" opacity="1" data-original="url(#r)"></path><path fill="url(#s)" d="M453.773 444.111v53.327c0 6.937-5.624 12.561-12.561 12.561H95.244c-10.83 0-20.64-4.39-27.74-11.49s-11.49-16.91-11.49-27.74c0-21.66 17.56-39.22 39.23-39.22h345.969c6.937.001 12.56 5.625 12.56 12.562z" opacity="1" data-original="url(#s)"></path><path fill="url(#t)" d="M425.544 500.495H97.872c-16.414 0-29.721-13.306-29.721-29.721 0-16.414 13.306-29.721 29.721-29.721h329.342c6.379 0 11.55 5.171 11.55 11.55v34.671c0 7.302-5.919 13.221-13.22 13.221z" opacity="1" data-original="url(#t)"></path><path fill="url(#u)" d="M71.598 484.667c4.988 9.413 14.88 15.829 26.274 15.829h327.671c7.302 0 13.221-5.919 13.221-13.22v-2.608H71.598z" opacity="1" data-original="url(#u)"></path><path fill="url(#v)" d="M97.872 500.495h327.671c7.302 0 13.221-5.919 13.221-13.22v-16.5H68.152c0 16.414 13.306 29.72 29.72 29.72z" opacity="1" data-original="url(#v)"></path><path fill="url(#w)" d="M71.453 457.167a29.579 29.579 0 0 0-3.301 13.608c0 16.414 13.306 29.721 29.721 29.721h327.671c7.302 0 13.221-5.919 13.221-13.22v-30.108H71.453z" opacity="1" data-original="url(#w)"></path><path fill="url(#x)" d="m183.222 457.167 52.125 52.125H112.392v-52.125z" opacity="1" data-original="url(#x)"></path><path fill="url(#y)" d="M109.486 457.167v50.982c0 1.494 1.68 2.371 2.905 1.517l30.467-21.228a6.111 6.111 0 0 1 6.99 0l30.467 21.228c1.226.854 2.905-.023 2.905-1.517v-50.982z" opacity="1" data-original="url(#y)"></path><path fill="url(#z)" d="M64.955 365.661v53.327c0 6.937 5.624 12.561 12.561 12.561h337.24c10.83 0 20.64-4.39 27.74-11.49s11.49-16.91 11.49-27.74c0-21.66-17.56-39.22-39.23-39.22H77.516c-6.937.001-12.561 5.625-12.561 12.562z" opacity="1" data-original="url(#z)"></path><path fill="url(#A)" d="M77.516 353.1h131.772c-6.938 0-12.561 5.624-12.561 12.561v53.327c0 6.937 5.624 12.561 12.561 12.561H77.516c-6.938 0-12.561-5.624-12.561-12.561v-53.327c0-6.937 5.624-12.561 12.561-12.561z" opacity="1" data-original="url(#A)"></path><path fill="url(#B)" d="M69.447 422.045h342.681c16.414 0 29.721-13.306 29.721-29.721 0-16.414-13.306-29.721-29.721-29.721H67.776c-6.379 0-11.55 5.171-11.55 11.55v34.671c0 7.302 5.92 13.221 13.221 13.221z" opacity="1" data-original="url(#B)"></path><path fill="url(#C)" d="M438.402 406.217c-4.988 9.413-14.88 15.829-26.274 15.829H69.447c-7.302 0-13.221-5.919-13.221-13.22v-2.608h382.176z" opacity="1" data-original="url(#C)"></path><path fill="url(#D)" d="M412.128 422.045H69.447c-7.302 0-13.221-5.919-13.221-13.22v-16.5h385.622c0 16.414-13.306 29.72-29.72 29.72z" opacity="1" data-original="url(#D)"></path><path fill="url(#E)" d="M438.547 378.717a29.579 29.579 0 0 1 3.301 13.608c0 16.414-13.306 29.721-29.721 29.721H69.447c-7.302 0-13.221-5.919-13.221-13.22v-30.108h382.321z" opacity="1" data-original="url(#E)"></path><path fill="url(#F)" d="M67.564 362.604h129.553c-.246.98-.39 2.001-.39 3.057v53.327c0 1.056.145 2.077.39 3.057H69.234c-7.302 0-13.221-5.919-13.221-13.221v-34.671c.001-6.378 5.172-11.549 11.551-11.549z" opacity="1" data-original="url(#F)"></path><path fill="url(#G)" d="M445.045 287.212v53.327c0 6.937-5.624 12.561-12.561 12.561H95.244c-10.83 0-20.64-4.39-27.74-11.49s-11.49-16.91-11.49-27.74c0-21.66 17.56-39.22 39.23-39.22h337.24c6.937 0 12.561 5.624 12.561 12.562z" opacity="1" data-original="url(#G)"></path><path fill="url(#H)" d="M432.484 353.1c6.938 0 12.561-5.624 12.561-12.561v-53.327c0-6.938-5.624-12.561-12.561-12.561h-228.09l78.45 78.45h149.64z" opacity="1" data-original="url(#H)"></path><path fill="url(#I)" d="M432.484 274.65H300.712c6.938 0 12.561 5.624 12.561 12.561v53.327c0 6.937-5.624 12.561-12.561 12.561h131.772c6.938 0 12.561-5.624 12.561-12.561v-53.327c0-6.937-5.624-12.561-12.561-12.561z" opacity="1" data-original="url(#I)"></path><path fill="url(#J)" d="M440.553 343.595H97.872c-16.414 0-29.721-13.306-29.721-29.721 0-16.414 13.306-29.721 29.721-29.721h344.351c6.379 0 11.55 5.171 11.55 11.55v34.671c0 7.302-5.919 13.221-13.22 13.221z" opacity="1" data-original="url(#J)"></path><path fill="url(#K)" d="M71.598 327.767c4.988 9.413 14.88 15.829 26.274 15.829h342.68c7.302 0 13.221-5.919 13.221-13.22v-2.608H71.598z" opacity="1" data-original="url(#K)"></path><path fill="url(#L)" d="M97.872 343.595h342.68c7.302 0 13.221-5.919 13.221-13.22v-16.5H68.152c0 16.414 13.306 29.72 29.72 29.72z" opacity="1" data-original="url(#L)"></path><path fill="url(#M)" d="M71.453 300.267a29.579 29.579 0 0 0-3.301 13.608c0 16.414 13.306 29.721 29.721 29.721h342.68c7.302 0 13.221-5.919 13.221-13.22v-30.108H71.453z" opacity="1" data-original="url(#M)"></path><path fill="url(#N)" d="m213.897 284.154 59.441 59.441h167.214c1.495 0 2.926-.26 4.266-.717.143-.759.226-1.539.226-2.34v-53.327c0-.956-.116-1.883-.318-2.778a11.601 11.601 0 0 0-2.503-.28H213.897z" opacity="1" data-original="url(#N)"></path><path fill="url(#O)" d="M442.436 284.154H312.883c.246.98.39 2.001.39 3.057v53.327c0 1.056-.145 2.077-.39 3.057h127.882c7.302 0 13.221-5.919 13.221-13.221v-34.671c0-6.378-5.171-11.549-11.55-11.549z" opacity="1" data-original="url(#O)"></path></g></svg>